<?xml version="1.0" encoding="utf-8"?>
<!-- Generator: Adobe Illustrator 22.0.1, SVG Export Plug-In . SVG Version: 6.00 Build 0)  -->
<svg version="1.1" id="Layer_1" xmlns="http://www.w3.org/2000/svg" xmlns:xlink="http://www.w3.org/1999/xlink" x="0px" y="0px"
     viewBox="0 0 609.9 196" style="enable-background:new 0 0 609.9 196;" xml:space="preserve">
<style type="text/css">
    .st0{fill:url(#SVGID_1_);}
    .st1{fill:#203944;}
</style>
<g id="Logo">
    <g>
        <linearGradient id="SVGID_1_" gradientUnits="userSpaceOnUse" x1="445.3513" y1="101.3526" x2="596.5019" y2="60.8519">
            <stop  offset="0" style="stop-color:#203944"/>
            <stop  offset="4.212590e-02" style="stop-color:#1E3D4A"/>
            <stop  offset="9.726162e-02" style="stop-color:#1A485A"/>
            <stop  offset="0.1596" style="stop-color:#135A76"/>
            <stop  offset="0.2268" style="stop-color:#09739B"/>
            <stop  offset="0.28" style="stop-color:#008ABE"/>
            <stop  offset="0.3352" style="stop-color:#0090C6"/>
            <stop  offset="0.4211" style="stop-color:#00A0DC"/>
            <stop  offset="0.48" style="stop-color:#00AEEF"/>
            <stop  offset="0.5232" style="stop-color:#27B6CA"/>
            <stop  offset="0.5801" style="stop-color:#53C09F"/>
            <stop  offset="0.6397" style="stop-color:#78C97B"/>
            <stop  offset="0.7012" style="stop-color:#97D05D"/>
            <stop  offset="0.7654" style="stop-color:#AFD546"/>
            <stop  offset="0.8334" style="stop-color:#C0D936"/>
            <stop  offset="0.9076" style="stop-color:#CADB2C"/>
            <stop  offset="1" style="stop-color:#CDDC29"/>
        </linearGradient>
        <path class="st0" d="M491.9,54.5c-5.3,1.5-9.1,5.6-10.5,10.6l-11.6,40.6l-2.9-10.2c-1.7-6-7.9-9.4-13.9-7.7
            c-6,1.7-9.4,7.9-7.7,13.9l6.7,23.2c1.7,6,7.9,9.4,13.9,7.7c3.9-1.1,6.7-4.1,7.7-7.7l11.3-39.5l10.5,36.5
            c2.3,8.2,10.8,12.9,19,10.5c5.3-1.5,9.1-5.6,10.5-10.5l22-76.6l20.7,72.3c3.2,11.3,15,17.8,26.3,14.6c11.3-3.2,17.8-15,14.6-26.3
            l-25.8-90c-3.2-11.3-15-17.8-26.3-14.6C549,3.2,543.5,8.9,541.6,16l0,0l-22.4,78L510.9,65C508.6,56.8,500.1,52.1,491.9,54.5z"/>
        <path class="st1" d="M432.4,120.6v0.5c0,5.9-1.3,10.6-10.8,10.6c-9.6,0-10.8-4.7-10.8-10.6v-0.5c0-5.9,1.3-10.6,10.8-10.6
            C431.1,110,432.4,114.7,432.4,120.6z M404,194.5c-5.6,0-11.6-1.1-16.4-5.2c-6.6-5.8-7.5-14.5-7.5-22.3v-36c0-0.1-0.1-0.1-0.1-0.1
            h-10.6c-5.5,0-6.8-1-6.8-9.9c0-9,1.4-9.9,6.8-9.9h10.6c0.1,0,0.1-0.1,0.1-0.1V96.4c0-6.6,1.2-8.3,12-8.3s12,1.6,12,8.3v67.8
            c0,7,0.7,8.5,3,10c3.2,2.1,9.7,0.6,15.3-0.2c4.4-0.6,4.6,1.1,5.7,7.7c1.2,6.6,1,8.9-3.3,10C421.1,192.5,412.9,194.5,404,194.5z
             M298.6,131.5c-4.3,0.9-4.6-0.9-6-7.4c-1.4-6.5-1.3-8.9,2.9-10.1c1.5-0.4,12.3-4,28.6-4c16,0,24.1,8.6,27,16.2
            c3.1,8,2.8,12.8,2.8,25.8c0,3,0,27.4,0,30.3c0,4.8-2.1,6.7-5.6,8.4c-3.3,1.6-13.5,5.1-26.3,5.1c-20.2,0-36.1-6-36.1-26
            c0-19.8,13.8-26.1,33.2-26.1c4.3,0,8.8,0.1,13,0.6c0.2,0,0.3-0.1,0.3-0.3v-4.5c0-7.4-3.6-11.8-13.3-11.7
            C312,127.8,298.7,131.4,298.6,131.5z M322.6,179c3.6,0,7-0.7,9.5-1.6c0.2-0.1,0.4-0.3,0.4-0.6v-15.7c0-0.3-0.2-0.5-0.5-0.6
            c-4.1-0.6-7-0.8-10.2-0.8c-8,0.1-13.5,2-13.5,9.8C308.4,176.2,313.4,179,322.6,179z M268.3,188.9c-4.2,3.3-11.7,6.8-21.8,6.8
            c-13.3,0-26-4.5-26-4.5c-4.4-1.4-4.4-2.6-3.4-9.3c1-6.7,1.7-9.5,5.7-8.5c5.5,1.3,15.9,4,22.1,4c4.7,0,8.9-1.9,9.1-6.9
            c0.3-5.3-4-8.1-13-10.6c-10.3-2.8-23.7-7.8-24.2-25c-0.4-13.9,10.4-24.9,28.1-24.9c13.8,0,20.6,2.9,24.3,4
            c4.2,1.2,4.3,3.6,2.9,10.1c-1.4,6.5-1.7,8.4-6,7.4c-4.3-0.9-12.1-3.6-19.2-3.2c-3.5,0.2-7.5,2-7.5,6.2c0,5.1,5.4,6.2,11.1,8.3
            c8.7,3.2,14.6,5.5,18.7,9c5.7,5,7.3,10,7.4,16.5C276.8,177.3,273.7,184.7,268.3,188.9z M147.7,131.5c-4.3,0.9-4.6-0.9-6-7.4
            c-1.4-6.5-1.3-8.9,2.9-10.1c1.5-0.4,12.3-4,28.6-4c16,0,24.1,8.6,27,16.2c3.1,8,2.8,12.8,2.8,25.8c0,3,0,27.4,0,30.3
            c0,4.8-2.1,6.7-5.6,8.4c-3.3,1.6-13.5,5.1-26.3,5.1c-20.2,0-36.1-6-36.1-26c0-19.8,13.8-26.1,33.2-26.1c4.3,0,8.8,0.1,13,0.6
            c0.2,0,0.3-0.1,0.3-0.3v-4.5c0-7.4-3.6-11.8-13.3-11.7C161.1,127.8,147.8,131.4,147.7,131.5z M171.7,179c3.6,0,7-0.7,9.5-1.6
            c0.2-0.1,0.4-0.3,0.4-0.6v-15.7c0-0.3-0.2-0.5-0.5-0.6c-4.1-0.6-7-0.8-10.2-0.8c-8,0.1-13.5,2-13.5,9.8
            C157.5,176.2,162.5,179,171.7,179z M109,194.5c-10.8,0-12-1.6-12-8.3v-67.1c0-6.6,1.2-8.3,12-8.3s12,1.6,12,8.3v67.1
            C121,192.8,119.8,194.5,109,194.5z M77,88.1c-10.1,0-11.6,1.6-13.2,8.3l-19.5,72.9L24.8,96.4c-1.7-6.6-3.1-8.3-13.2-8.3
            c-10,0-12.1,1.6-10.4,8.2l25.8,89.9c2.2,6.6,6.5,8.3,17.4,8.3c10.8,0,15.1-1.6,17.4-8.3l25.8-89.9C89,89.7,87,88.1,77,88.1z"/>
    </g>
    <g>
        <path class="st1" d="M438.7,193.2v-7.7h-3v-1.6h7.8v1.6h-3v7.7H438.7z M445,193.2v-9.4h2.2l1.4,3.5l0.8,2.4h0.1l0.8-2.4l1.4-3.5
            h2.2v9.4h-1.7v-4.1l0.2-3.2h-0.1l-2.2,5.9h-1.4l-2.2-5.9h-0.1l0.2,3.2v4.1H445z"/>
    </g>
</g>
</svg>
